<?xml version="1.0" standalone="no"?>
<!DOCTYPE svg PUBLIC "-//W3C//DTD SVG 20010904//EN"
 "http://www.w3.org/TR/2001/REC-SVG-20010904/DTD/svg10.dtd">
<svg version="1.0" xmlns="http://www.w3.org/2000/svg"
 width="256.000000pt" height="256.000000pt" viewBox="0 0 256.000000 256.000000"
 preserveAspectRatio="xMidYMid meet">
<metadata>
Created by potrace 1.11, written by Peter Selinger 2001-2013
</metadata>
<g transform="translate(0.000000,256.000000) scale(0.100000,-0.100000)"
fill="#000000" stroke="none">
<path d="M2302 2377 c-35 -18 -59 -37 -55 -41 4 -5 3 -6 -4 -2 -17 9 -217
-110 -294 -175 -80 -68 -159 -129 -247 -190 l-67 -47 -15 63 c-8 35 -18 67
-22 71 -11 10 -10 -4 2 -46 15 -57 21 -100 13 -100 -8 0 -55 160 -56 193 -1
11 -7 15 -16 12 -12 -5 -12 -3 -1 11 9 10 10 18 3 22 -5 4 -16 32 -24 62 -17
67 -17 67 -27 -200 -6 -173 -9 -195 -24 -198 -10 -2 -70 33 -134 77 -105 73
-122 81 -163 81 -67 0 -74 -8 -69 -75 5 -56 6 -57 95 -147 l91 -91 -83 -68
c-46 -38 -88 -69 -94 -69 -6 0 -11 10 -11 23 0 33 -56 246 -84 319 -67 178
-135 285 -221 348 -64 47 -80 56 -71 42 3 -6 2 -13 -3 -17 -6 -3 -4 -20 6 -43
42 -100 149 -431 159 -492 2 -14 9 -45 14 -70 5 -25 12 -58 14 -75 3 -16 10
-60 17 -96 l12 -67 -34 -31 c-19 -17 -38 -31 -42 -31 -4 0 -43 20 -86 45 -91
53 -142 72 -236 90 -38 7 -106 20 -150 28 -199 39 -258 48 -302 46 -27 -1 -51
-4 -56 -6 -10 -6 67 -70 93 -78 11 -4 20 -11 20 -16 0 -5 6 -9 13 -9 7 0 33
-9 57 -21 24 -12 77 -35 119 -53 42 -18 120 -58 173 -90 54 -31 100 -56 104
-56 4 1 10 -2 13 -7 3 -5 18 -16 33 -26 l28 -17 -63 -77 c-156 -190 -167 -209
-255 -429 -33 -83 -94 -218 -136 -298 -79 -155 -89 -202 -31 -144 17 18 50 44
72 56 22 13 62 44 89 68 55 50 124 97 246 167 46 26 153 104 238 172 l155 125
7 -85 c7 -82 20 -125 37 -125 18 0 34 54 50 168 9 66 19 123 23 127 6 6 73
-28 88 -44 3 -4 16 -12 30 -19 14 -7 55 -35 93 -62 l67 -50 -46 -62 c-81 -109
-214 -417 -144 -333 7 8 47 39 89 69 42 29 105 78 141 107 115 97 104 95 186
28 39 -32 74 -55 78 -52 3 4 6 67 6 141 l0 135 48 56 c26 30 99 110 162 176
132 137 145 154 195 254 26 51 35 80 31 97 -11 44 9 64 65 64 37 0 48 3 43 13
-6 9 -5 9 7 0 20 -16 55 9 42 32 -11 19 -101 95 -113 95 -15 0 -17 34 -4 72
18 52 5 55 -20 5 -19 -39 -24 -42 -56 -39 -19 2 -95 19 -168 38 -73 19 -135
34 -138 34 -12 0 3 29 72 142 107 171 280 400 386 510 82 85 112 118 107 118
-2 -1 -32 -16 -67 -33z m-392 -281 c0 -2 -8 -10 -17 -17 -16 -13 -17 -12 -4 4
13 16 21 21 21 13z m-385 -115 c3 -5 1 -12 -5 -16 -5 -3 -10 1 -10 9 0 18 6
21 15 7z m354 -156 c-60 -91 -115 -165 -121 -165 -7 0 0 13 15 28 15 15 27 32
27 38 0 17 173 264 185 264 2 0 -46 -74 -106 -165z m-569 -193 c0 -4 -12 -15
-27 -24 -16 -9 -47 -34 -69 -55 -109 -100 -104 -97 -104 -74 0 12 4 21 9 21 5
0 48 32 95 70 89 71 96 76 96 62z m-363 -44 c2 -18 0 -20 -7 -8 -12 18 -13 30
-2 30 4 0 9 -10 9 -22z m950 -34 c-3 -3 -12 -4 -19 -1 -8 3 -5 6 6 6 11 1 17
-2 13 -5z m-157 -51 c43 -20 121 -44 167 -50 23 -3 43 -9 43 -13 0 -8 -43 -5
-57 3 -5 3 -28 8 -52 12 -60 9 -153 44 -145 56 3 5 8 8 12 6 4 -2 18 -8 32
-14z m-783 -25 c-3 -7 -5 -2 -5 12 0 14 2 19 5 13 2 -7 2 -19 0 -25z m855 -42
c73 -24 145 -47 160 -50 28 -6 28 -6 8 -26 -11 -11 -25 -20 -31 -20 -15 0 -64
-61 -64 -79 0 -9 -3 -14 -6 -11 -12 9 -50 -33 -44 -49 3 -8 3 -12 -1 -8 -8 8
-44 -21 -44 -36 0 -5 8 -3 18 4 15 13 16 12 3 -3 -7 -10 -18 -15 -24 -11 -6 4
-8 0 -4 -9 3 -10 -5 -25 -20 -39 -15 -13 -23 -18 -19 -11 13 22 -6 13 -26 -14
-11 -14 -22 -23 -24 -21 -3 2 -7 62 -10 133 -2 71 -6 166 -8 212 -3 45 -3 82
0 82 2 0 63 -20 136 -44z m-832 -16 c0 -5 -4 -10 -10 -10 -5 0 -10 5 -10 10 0
6 5 10 10 10 6 0 10 -4 10 -10z m7 -45 c0 -8 -4 -15 -9 -15 -4 0 -8 7 -8 15 0
8 4 15 8 15 5 0 9 -7 9 -15z m477 -105 c-37 -44 -73 -80 -81 -80 -8 0 -12 -4
-9 -8 3 -5 -9 -17 -27 -27 l-32 -18 25 28 c14 16 34 38 45 49 11 12 47 55 80
96 43 54 61 70 63 57 2 -10 -24 -50 -64 -97z m-514 71 c0 -12 -50 -44 -57 -37
-9 8 27 46 44 46 7 0 13 -4 13 -9z m604 -100 c9 -40 13 -77 10 -82 -7 -12 -34
1 -31 14 1 7 -8 12 -21 11 -16 0 -19 3 -12 10 16 16 12 30 -5 16 -13 -11 -14
-10 -8 6 6 17 5 18 -12 4 -17 -14 -18 -13 -11 5 9 25 70 105 73 97 1 -4 9 -40
17 -81z m379 65 c-10 -13 -20 -22 -22 -20 -4 4 29 44 36 44 2 0 -4 -11 -14
-24z m-1236 -116 c8 0 11 5 7 12 -4 7 -3 8 4 4 6 -4 9 -13 6 -21 -7 -17 -42
-3 -51 21 -3 7 -10 11 -16 7 -6 -4 -7 -1 -2 7 7 11 12 9 23 -8 8 -12 21 -22
29 -22z m744 7 c-10 -9 -11 -8 -5 6 3 10 9 15 12 12 3 -3 0 -11 -7 -18z m-681
-32 c-7 -8 -18 -15 -24 -15 -6 0 -2 7 8 15 25 19 32 19 16 0z m-30 -31 c0 -8
-49 -69 -103 -129 -20 -22 -37 -43 -37 -46 0 -8 -60 -74 -60 -65 0 15 75 124
127 184 49 56 73 74 73 56z m600 -10 c0 -9 -62 -65 -67 -60 -5 5 49 66 60 66
4 0 7 -3 7 -6z m23 -99 c12 -8 16 -15 9 -15 -20 0 -14 -16 11 -28 12 -6 16
-11 10 -11 -7 -1 -21 7 -31 17 -10 9 -30 23 -45 31 l-27 14 22 25 c23 23 23
23 26 3 2 -11 13 -28 25 -36z m387 42 c0 -2 -12 -14 -27 -28 l-28 -24 24 28
c23 25 31 32 31 24z m-497 -184 c20 -14 37 -30 37 -36 0 -6 2 -8 5 -5 6 5 77
-60 110 -102 14 -17 6 -14 -27 13 -25 20 -51 37 -57 37 -6 0 -11 5 -11 10 0 6
-7 10 -15 10 -8 0 -15 5 -15 10 0 6 -7 10 -15 10 -7 0 -19 8 -24 18 -6 9 -11
14 -11 10 0 -5 -9 1 -20 12 -11 11 -27 20 -35 20 -8 0 -15 7 -15 16 0 22 43
11 93 -23z m-775 -125 c-7 -13 -17 -26 -23 -30 -5 -4 -7 -8 -2 -8 4 0 1 -16
-7 -35 -9 -20 -14 -36 -14 -38 6 -8 -22 -40 -29 -33 -4 5 -3 11 4 13 7 2 10
10 7 18 -6 14 16 61 48 108 23 33 33 36 16 5z m362 8 c0 -2 -8 -10 -17 -17
-16 -13 -17 -12 -4 4 13 16 21 21 21 13z m588 -96 c-7 -11 -16 -20 -20 -20 -5
0 -3 9 4 20 7 11 16 20 20 20 5 0 3 -9 -4 -20z m-1037 -93 c-10 -9 -11 -8 -5
6 3 10 9 15 12 12 3 -3 0 -11 -7 -18z"/>
<path d="M1959 1363 c-13 -16 -12 -17 4 -4 9 7 17 15 17 17 0 8 -8 3 -21 -13z"/>
<path d="M1755 1119 c-11 -17 1 -21 15 -4 8 9 8 15 2 15 -6 0 -14 -5 -17 -11z"/>
<path d="M1551 2200 c0 -8 6 -28 14 -45 17 -39 18 -21 0 25 -7 19 -14 28 -14
20z"/>
<path d="M1580 2079 c0 -5 5 -7 10 -4 6 3 10 8 10 11 0 2 -4 4 -10 4 -5 0 -10
-5 -10 -11z"/>
</g>
</svg>
